/* XPM */
static char *ece4b36ec5f04809ca51e48bd56b67daYGh1PNVU4D5rbtiL[] = {
/* columns rows colors chars-per-pixel */
"32 32 89 1 ",
"  c white",
". c #E3F0E3",
"X c #48A248",
"o c #108610",
"O c #228F22",
"+ c #AAD4AA",
"@ c #FCFDFC",
"# c #DAECDA",
"$ c #A3D0A3",
"% c #6CB46C",
"& c #4BA44B",
"* c #449F44",
"= c #56AA56",
"- c #8CC48C",
"; c #D4E9D4",
": c #C5E1C5",
"> c #0A840A",
", c #007F00",
"< c #007D00",
"1 c #66B166",
"2 c #E8F3E8",
"3 c #ABD4AB",
"4 c #5EAD5E",
"5 c #229022",
"6 c #078307",
"7 c #028102",
"8 c #218F21",
"9 c #81BF81",
"0 c #F1F7F1",
"q c #C5E0C5",
"w c #0C850C",
"e c #008000",
"r c #168A16",
"t c #DCEDDC",
"y c #FDFEFD",
"u c #EBF4EB",
"i c #BEDDBE",
"p c #75B975",
"a c #2D962D",
"s c #058205",
"d c #007E00",
"f c #0B850B",
"g c #C7E2C7",
"h c #208F20",
"j c #58AB58",
"k c #80BE80",
"l c #8AC48A",
"z c #7FBE7F",
"x c #5CAD5C",
"c c #2F962F",
"v c #C4E0C4",
"b c #128812",
"n c #158A15",
"m c #0E860E",
"M c #018001",
"N c #4AA44A",
"B c #87C287",
"V c #B6DAB6",
"C c #D0E7D0",
"Z c #D5E9D5",
"A c #9CCC9C",
"S c #4FA64F",
"D c #188A18",
"F c #C3E0C3",
"G c #3B9C3B",
"H c #89C389",
"J c #D1E7D1",
"K c #F7FBF7",
"L c #B8DAB8",
"P c #DFEEDF",
"I c #65B165",
"U c #B0D7B0",
"Y c #4CA54C",
"T c #178B17",
"R c #068206",
"E c #038103",
"W c #068306",
"Q c #379B37",
"! c #74B974",
"~ c #BCDDBC",
"^ c #F0F7F0",
"/ c #6DB56D",
"( c #B5D9B5",
") c #D2E8D2",
"_ c #C8E2C8",
"` c #1B8B1B",
"' c #0F860F",
"] c #0C840C",
"[ c #76B876",
/* pixels */
"  .XoO+            @#$%&*=-;    ",
"  :>,<1          23456,,,,7890  ",
"  qwe,r9t@   yuipasd,eeeeee,fg  ",
"  qwee,ehjklzxcfd,eeeeeeeeeewv  ",
"  qweeee,dd,dd,eeeeeeeeeeeeewq  ",
"  qweeeeeeeeeeeeeeeeeeeeeeeewq  ",
"  qweeeeeeeeeeeeeeeeeeeeeeeewq  ",
"  qweeeeeeeeeeeeeeeeeeeeeeeewq  ",
"  qweeeeeeeeeeeeeeeeeeeeeeeewq  ",
"  qweeeeeeeeeeeeeeeeeeeeeeeewq  ",
"  qweeeeeeeeeeeeeeeeeeeeeeeewq  ",
"  qweeeeeeeeeeeeeeeeeeeeeeeewq  ",
"  qweeeeeeeeeeeeeeeeeeeeeeeewq  ",
"  qweeeeeeeeeeeeeeeeeeeeeeeewq  ",
"  qweeeeeeeeeeeeeeeeeeeeeeeewq  ",
"  qweeeeeeeeeeeeeeeeeeeeeeeewq  ",
"  qweeeeeeeeeeeeeeeeeeeeeeeewq  ",
"  qweeeeeeeeeeeeeeeeeee,,eeewq  ",
"  qweeeeeeeeeeeeeee,d,6bnmMdf:  ",
"  qwee,eeeeeeeeeed,rNBVCZgASDF  ",
"  qweenfd,eee,ddfGHJK      KLP  ",
"  qwedIUYTREWnQ!~^              ",
"  qwed/ KZ(3V)^                 ",
"  qwed/                         ",
"  qwed/                         ",
"  qwed/                         ",
"  qwed/                         ",
"  qwed/                         ",
"  qwed/                         ",
"  qwed/                         ",
"  vf,<%                         ",
"  _`'][                         "
};
