/* XPM */
static char *_3064c92028a4c45b08dae9cb200f35cQwuoYqEoxbZ9RFlq[] = {
/* columns rows colors chars-per-pixel */
"32 32 243 2 ",
"   c None",
".  c #3D1D0F",
"X  c #231510",
"o  c #35251E",
"O  c #10192A",
"+  c #12192A",
"@  c #131A2A",
"#  c #121B2E",
"$  c #161F35",
"%  c #162036",
"&  c #182137",
"*  c #172138",
"=  c #17223A",
"-  c #182239",
";  c #19243B",
":  c #19243C",
">  c #19243D",
",  c #1A243C",
"<  c #1A253D",
"1  c #19243E",
"2  c #18253F",
"3  c #19253F",
"4  c #1A253E",
"5  c #1A253F",
"6  c #1A263F",
"7  c #1B263F",
"8  c #1C2B3D",
"9  c #2A2937",
"0  c #24293C",
"q  c #352B34",
"w  c #2A3F3A",
"e  c #4A2512",
"r  c #492614",
"t  c #482715",
"y  c #452817",
"u  c #4C2815",
"i  c #4C2816",
"p  c #4E2917",
"a  c #482918",
"s  c #4B2B18",
"d  c #4D2B18",
"f  c #502814",
"g  c #502917",
"h  c #5D331F",
"j  c #602E16",
"k  c #66331B",
"l  c #422E24",
"z  c #482D29",
"x  c #4D332D",
"c  c #543023",
"v  c #5F3623",
"b  c #593627",
"n  c #52392D",
"m  c #583A2E",
"M  c #623727",
"N  c #633A25",
"B  c #663A25",
"V  c #733D23",
"C  c #1E5515",
"Z  c #1E5E14",
"A  c #244A17",
"S  c #294B16",
"D  c #215817",
"F  c #225B17",
"G  c #21561D",
"H  c #2B541D",
"J  c #225918",
"K  c #225819",
"L  c #225919",
"P  c #225A18",
"I  c #235F18",
"U  c #275B1E",
"Y  c #216216",
"T  c #216515",
"R  c #236717",
"E  c #236A16",
"W  c #226A17",
"Q  c #2C601A",
"!  c #246A18",
"~  c #256B18",
"^  c #256D19",
"/  c #266D19",
"(  c #256E19",
")  c #27791A",
"_  c #29781C",
"`  c #2C7A1E",
"'  c #2B7E1E",
"]  c #2B7F1E",
"[  c #2D7E1F",
"{  c #1F4E2D",
"}  c #224929",
"|  c #3A4922",
" . c #275A22",
".. c #2A5A22",
"X. c #3E5F24",
"o. c #275435",
"O. c #376221",
"+. c #306F22",
"@. c #2D7C22",
"#. c #2D7729",
"$. c #2F7D2B",
"%. c #2E6B31",
"&. c #3B6A33",
"*. c #2F7330",
"=. c #327533",
"-. c #594037",
";. c #5F4136",
":. c #594832",
">. c #574239",
",. c #57483D",
"<. c #64442E",
"1. c #69412E",
"2. c #7C4225",
"3. c #77462E",
"4. c #7E4428",
"5. c #6D4B3B",
"6. c #6E4B3B",
"7. c #774938",
"8. c #7D4E3A",
"9. c #6A5F3B",
"0. c #4E653C",
"q. c #5C6639",
"w. c #606335",
"e. c #646E3A",
"r. c #6B783D",
"t. c #1A2640",
"y. c #1B2740",
"u. c #1A2641",
"i. c #1B2641",
"p. c #1A2642",
"a. c #1C2843",
"s. c #1D2F41",
"d. c #1C2844",
"f. c #1C2946",
"g. c #1C2947",
"h. c #1D2A47",
"j. c #1D2A49",
"k. c #1D2B4A",
"l. c #1E2C4D",
"z. c #1F2D4D",
"x. c #1E2D4E",
"c. c #1E2D4F",
"v. c #1F2D50",
"b. c #1F2E50",
"n. c #222A45",
"m. c #2C2E43",
"M. c #2A3D4E",
"N. c #323B4E",
"B. c #202E50",
"V. c #202F53",
"C. c #223053",
"Z. c #213155",
"A. c #223255",
"S. c #223156",
"D. c #223356",
"F. c #253356",
"G. c #243856",
"H. c #233358",
"J. c #21325A",
"K. c #23335A",
"L. c #24355C",
"P. c #284B46",
"I. c #3F484E",
"U. c #325042",
"Y. c #294252",
"T. c #59524D",
"R. c #40634B",
"E. c #586F43",
"W. c #4B7445",
"Q. c #7B7644",
"!. c #7D6254",
"~. c #82472A",
"^. c #874B2E",
"/. c #884C2E",
"(. c #824B31",
"). c #8C5032",
"_. c #966750",
"`. c #976B54",
"'. c #906D5E",
"]. c #AB795D",
"[. c #9F7E6A",
"{. c #A77964",
"}. c #AC7A62",
"|. c #2D801F",
" X c #2F8520",
".X c #308621",
"XX c #3B932C",
"oX c #3F9031",
"OX c #768231",
"+X c #4D8A45",
"@X c #59824C",
"#X c #56884D",
"$X c #638E4A",
"%X c #689765",
"&X c #73A376",
"*X c #80853E",
"=X c #B68165",
"-X c #B9856C",
";X c #BB8A71",
":X c #CC9677",
">X c #D19979",
",X c #867F81",
"<X c #83848A",
"1X c #889189",
"2X c #8F9B8B",
"3X c gray57",
"4X c #939293",
"5X c gray59",
"6X c #979797",
"7X c #989F97",
"8X c gray62",
"9X c #9F9E9F",
"0X c #9AA299",
"qX c #A0A0A0",
"wX c gray64",
"eX c #A5A5A5",
"rX c #A9A9A9",
"tX c #AAAAAA",
"yX c gray67",
"uX c gray68",
"iX c #AFAFAF",
"pX c #B1B1B1",
"aX c #B2B4B1",
"sX c #B3B6B3",
"dX c #B4B3B4",
"fX c gray71",
"gX c #B6B5B5",
"hX c #B6B8B6",
"jX c #B9B9B9",
"kX c gray",
"lX c #BEBFBF",
"zX c #CDA284",
"xX c #DAA484",
"cX c #9DC09D",
"vX c #A0C49B",
"bX c #C0C0C0",
"nX c #C1C1C1",
"mX c #C4C5C5",
"MX c gray80",
"NX c #D5D5D5",
"BX c #D8D8D8",
"VX c #DDDDDD",
"CX c #DFDFE0",
/* pixels */
"                                                                ",
"                                                                ",
"                                VXBXkXtX                        ",
"                              bXkXbXgXtX                        ",
"                              dXbXmXjX0XqX                      ",
"                    oX.X` / Y   hXbXpX8XqX                      ",
"                  vXvXXX.X_ ~ F W.gXlXaX7X                      ",
"                +X&X%X+.U O.O.A H @X#X&...                      ",
"                I U | :.T.!.].1.<.r.) T P                       ",
"                C A ,.'.<X<X:X8.7.Q.[ W P                       ",
"                    zXxX;X{.n 5.}.q.|.( P                       ",
"                    >X=X`.n X 5.-Xe.@./ P                       ",
"                      >.o l m _.}.E.' ~ P                       ",
"                    CXmXgX    9.0.P.@.T P                       ",
"                  NXMXuXeXuX  #.$.Y.%.W P ..                    ",
"                  uXwX3X4X2XU.*.=.*Xq.{ G }                     ",
"                    5X5X0X$XOXM.G.I.N.x.s.8 4                   ",
"                      1XR.o.w A.K.K.K.b.j.u.>                   ",
"                        A.b.u.d.B.A.A.b.f.4 u.                  ",
"                      F.L.x.u.4 > j.x.j.> ; 4                   ",
"                  /.V z m.d.u.4 $ $ * * * ; y.                  ",
"                ~.).2.j b 9 u.      ; l.d.;                     ",
"                r r i g B ;.0       d.A.j.4                     ",
"                  y a r g v -.    @ 4 x.u.                      ",
"                    i d s i       @ > f.4                       ",
"                                @ # 4 4                         ",
"                              c q n.a.4                         ",
"                              4.^.M x                           ",
"                              3.(.k N                           ",
"                              v i .                             ",
"                                                                ",
"                                                                "
};
