/* XPM */
static char *a9bfe06dbeb14891edc8775cd8d6e85134GWJY4hEW0KtTo7[] = {
/* columns rows colors chars-per-pixel */
"32 32 92 1 ",
"  c white",
". c #FFF5E3",
"X c #FFBD48",
"o c #FFA910",
"O c #FFB022",
"+ c #FFE0AA",
"@ c #FFFEFC",
"# c #FFF1DA",
"$ c #FFDDA3",
"% c #FFCA6C",
"& c #FFBE4B",
"* c #FFBB44",
"= c #FFC256",
"- c #FFD58C",
"; c #FFEFD4",
": c #FFEAC5",
"> c #FFA80A",
", c #FFA400",
"< c #FFA300",
"1 c #FFC866",
"2 c #FFF6E8",
"3 c #FFE1AB",
"4 c #FFC55E",
"5 c #FFB122",
"6 c #FFA707",
"7 c #FFA602",
"8 c #FFB021",
"9 c #FFD281",
"0 c FloralWhite",
"q c #FFE9C5",
"w c #FFA90C",
"e c orange",
"r c #FFAC16",
"t c #FFF2DC",
"y c #FFFEFD",
"u c #FFF8EB",
"i c #FFE7BE",
"p c #FFCD75",
"a c #FFB42D",
"s c #FFA705",
"d c #FFA80B",
"f c #FFEAC7",
"g c #FFB020",
"h c #FFC358",
"j c #FFD180",
"k c #FFD58A",
"l c #FFD17F",
"z c #FFC55C",
"x c #FFB52F",
"c c #FFA90B",
"v c #FFE9C4",
"b c #FFAB12",
"n c #FFAC15",
"m c #FFA90E",
"M c #FFA501",
"N c #FFBE4A",
"B c #FFD487",
"V c #FFE5B6",
"C c #FFEED0",
"Z c #FFF0D5",
"A c #FFEBC7",
"S c #FFDB9C",
"D c #FFC04E",
"F c #FFAC18",
"G c #FFE9C3",
"H c #FFB93B",
"J c #FFD489",
"K c #FFEED1",
"L c #FFFCF7",
"P c #FFE5B8",
"I c #FFF3DF",
"U c #FFC765",
"Y c #FFE2B0",
"T c #FFBF4C",
"R c #FFAD17",
"E c #FFA706",
"W c #FFA603",
"Q c #FFB838",
"! c #FFCD74",
"~ c #FFE7BC",
"^ c #FFF9F0",
"/ c #FFCB6D",
"( c moccasin",
") c #FFE0AB",
"_ c #FFE4B6",
"` c #FFEFD2",
"' c #FFCA6D",
"] c #FFEAC8",
"[ c #FFAD1B",
"{ c #FFA90F",
"} c #FFA80C",
"| c #FFCD76",
/* pixels */
"  .XoO+            @#$%&*=-;    ",
"  :>,<1          23456,,,,7890  ",
"  qweer9t@   yuipas,,eeeeee,df  ",
"  qwee,eghjklzxc,,eeeeeeeeeewv  ",
"  qweeee,,,,,<,eeeeeeeeeeeeewq  ",
"  qweeeeeeeeeeeeeeeeeeeeeeeewq  ",
"  qweeeeeeeeeeeeeeeeeeeeeeeewq  ",
"  qweeeeeeeeeeeeeeeeeeeeeeeewq  ",
"  qweeeeeeeeeeeeeeeeeeeeeeeewq  ",
"  qweeeeeeeeeeeeeeeeeeeeeeeewq  ",
"  qweeeeeeeeeeeeeeeeeeeeeeeewq  ",
"  qweeeeeeeeeeeeeeeeeeeeeeeewq  ",
"  qweeeeeeeeeeeeeeeeeeeeeeeewq  ",
"  qweeeeeeeeeeeeeeeeeeeeeeeewq  ",
"  qweeeeeeeeeeeeeeeeeeeeeeeewq  ",
"  qweeeeeeeeeeeeeeeeeeeeeeeewq  ",
"  qweeeeeeeeeeeeeeeeeeeeeeeewq  ",
"  qweeeeeeeeeeeeeeeeeeeeeeeewq  ",
"  qweeeeeeeeeeeeeeee,,6bnmM<dq  ",
"  qweeeeeeeeeeeee,,rNBVCZASDFG  ",
"  qweenc,,eeee,,dHJKL      LPI  ",
"  qwe,UYTREWEnQ!~^              ",
"  qwe</ LZ()_`^                 ",
"  qwe<'                         ",
"  qwe<'                         ",
"  qwe<'                         ",
"  qwe<'                         ",
"  qwe<'                         ",
"  qwe<'                         ",
"  qwe<'                         ",
"  vde<%                         ",
"  ][{}|                         "
};
